<svg width="65" height="65" viewBox="0 0 65 65" fill="none" xmlns="http://www.w3.org/2000/svg">
<g clip-path="url(#clip0_19_485)">
<path d="M50.7973 0.281254C47.1418 0.278409 43.6346 1.73006 41.0455 4.31756C38.4564 6.90506 36.9969 10.417 36.9875 14.0824V29.3845C35.5653 29.4807 34.1111 29.5414 32.6035 29.5414C31.096 29.5414 29.6488 29.602 28.2195 29.6875V14.0824C28.1614 10.4488 26.681 6.98368 24.0978 4.43468C21.5147 1.88569 18.0357 0.457092 14.4115 0.457092C10.7873 0.457092 7.30836 1.88569 4.72518 4.43468C2.14201 6.98368 0.661667 10.4488 0.603516 14.0824V50.6548C0.661667 54.2885 2.14201 57.7535 4.72518 60.3025C7.30836 62.8515 10.7873 64.2801 14.4115 64.2801C18.0357 64.2801 21.5147 62.8515 24.0978 60.3025C26.681 57.7535 28.1614 54.2885 28.2195 50.6548V35.3527C29.6417 35.2565 31.096 35.1959 32.6035 35.1959C34.1111 35.1959 35.5582 35.1353 36.9875 35.0497V50.6548C37.0457 54.2885 38.526 57.7535 41.1092 60.3025C43.6924 62.8515 47.1713 64.2801 50.7955 64.2801C54.4197 64.2801 57.8987 62.8515 60.4818 60.3025C63.065 57.7535 64.5454 54.2885 64.6035 50.6548V14.0824C64.5941 10.4176 63.1351 6.90622 60.5468 4.31882C57.9584 1.73142 54.4521 0.279353 50.7973 0.281254ZM14.4097 5.93576C16.5671 5.93481 18.6367 6.79201 20.1644 8.31929C21.6922 9.84657 22.5534 11.9192 22.5591 14.0824V30.2865C18.5192 30.8735 14.5741 31.9919 10.8257 33.6129C9.20168 34.3276 7.67285 35.2426 6.27463 36.3367V14.0824C6.28027 11.9216 7.13951 9.85119 8.66422 8.32432C10.1889 6.79745 12.2549 5.93858 14.4097 5.93576ZM22.5591 50.6548C22.5591 52.8221 21.7005 54.9005 20.1722 56.433C18.6439 57.9655 16.5711 58.8264 14.4097 58.8264C12.2484 58.8264 10.1756 57.9655 8.64729 56.433C7.11899 54.9005 6.26041 52.8221 6.26041 50.6548V46.9862C6.26041 43.7454 8.82041 40.6757 13.112 38.7647C16.1359 37.4565 19.3087 36.5261 22.5591 35.9945V50.6548ZM50.7973 58.8015C48.64 58.8024 46.5704 57.9452 45.0426 56.4179C43.5148 54.8906 42.6536 52.818 42.648 50.6548V34.4507C46.6878 33.8637 50.6329 32.7453 54.3813 31.1243C56.0054 30.4096 57.5342 29.4946 58.9324 28.4005V50.6548C58.9268 52.8156 58.0675 54.886 56.5428 56.4129C55.0181 57.9398 52.9521 58.7986 50.7973 58.8015ZM52.0951 25.9511C49.0712 27.2593 45.8983 28.1897 42.648 28.7213V14.0824C42.648 11.9151 43.5065 9.83667 45.0348 8.3042C46.5631 6.77173 48.636 5.9108 50.7973 5.9108C52.9586 5.9108 55.0314 6.77173 56.5597 8.3042C58.088 9.83667 58.9466 11.9151 58.9466 14.0824V17.751C58.9466 20.9776 56.3866 24.0473 52.0951 25.9511Z" fill="#F8FFF2"/>
</g>
<defs>
<clipPath id="clip0_19_485">
<rect width="64" height="64" fill="white" transform="translate(0.603516 0.28125)"/>
</clipPath>
</defs>
</svg>
