<svg width="51" height="73" viewBox="0 0 51 73" fill="none" xmlns="http://www.w3.org/2000/svg">
<path d="M49.3597 24.6626C49.1087 11.5274 38.2267 1.09436 25.0478 1.34456C12.2203 1.58224 1.89053 11.8777 1.6395 24.6626C1.6395 24.7251 1.62695 24.7877 1.62695 24.8377V25.2005V68.2087C1.66461 69.6723 2.86954 70.8232 4.33804 70.7982C5.75635 70.7731 6.89852 69.6223 6.93617 68.2087V60.5152C6.93617 59.0516 8.12855 57.8757 9.58451 57.8757C11.053 57.8757 12.2328 59.0641 12.2328 60.5152V64.1555C12.2328 65.6192 13.4252 66.7951 14.8812 66.7951C16.3497 66.7951 17.5295 65.6067 17.5295 64.1555V60.5152C17.5295 59.0516 18.7219 57.8757 20.1779 57.8757C21.6464 57.8757 22.8262 59.0641 22.8262 60.5152V61.516C22.8638 62.9796 24.0688 64.1305 25.5373 64.1055C26.9556 64.0805 28.0978 62.9296 28.1354 61.516V60.5152C28.1354 59.0516 29.3278 57.8757 30.7837 57.8757C32.2397 57.8757 33.4321 59.0641 33.4321 60.5152V64.1555C33.4321 65.6192 34.6245 66.7951 36.0804 66.7951C37.5364 66.7951 38.7287 65.6067 38.7287 64.1555V60.5152C38.7287 59.0516 39.9211 57.8757 41.3771 57.8757C42.8456 57.8757 44.038 59.0516 44.038 60.5152V68.2087C44.038 69.6723 45.2303 70.8482 46.6863 70.8482C48.1423 70.8482 49.3346 69.6598 49.3346 68.2087V24.8502C49.3597 24.7877 49.3597 24.7251 49.3597 24.6626ZM16.7011 28.4655C14.354 28.4655 12.4588 26.2888 12.4588 23.6117C12.4588 20.9347 14.3666 18.758 16.7011 18.758C19.0357 18.758 20.9435 20.9347 20.9435 23.6117C20.9435 26.2888 19.0482 28.4655 16.7011 28.4655ZM25.6879 35.3208C23.5667 35.3208 21.8346 34.0573 21.8346 32.4936C21.8346 30.9299 23.5667 31.8806 25.6879 31.8806C27.8091 31.8806 29.5412 30.9424 29.5412 32.4936C29.5412 34.0448 27.8216 35.3208 25.6879 35.3208ZM34.2981 28.4655C31.951 28.4655 30.0558 26.2888 30.0558 23.6117C30.0558 20.9347 31.951 18.758 34.2981 18.758C36.6452 18.758 38.553 20.9347 38.553 23.6117C38.553 26.2888 36.6578 28.4655 34.2981 28.4655Z" fill="#F8FFF2"/>
</svg>
