<svg width="229" height="557" viewBox="0 0 229 557" fill="none" xmlns="http://www.w3.org/2000/svg">
<path d="M106.709 510.89L183.723 510.89L183.723 44.7977L106.709 44.7977C106.709 44.7977 104.982 36.8894 97.0342 22.5198C89.0862 8.15024 81.1218 1.75859e-06 81.1218 1.75859e-06L228.594 0L228.594 555.688L81.1218 555.688C81.1218 555.688 91.7588 541.718 97.0342 532.493C102.31 523.269 106.709 510.89 106.709 510.89Z" fill="#82EF07"/>
<path d="M52.4655 0.00379043C102.562 76.3104 134.513 177.035 134.513 278.37C134.513 379.095 102.562 479.82 52.4655 556.126L0 556.126C50.7076 479.82 84.6733 379.095 84.6733 278.37C84.6733 177.035 50.7076 76.3104 -3.09598e-05 0.00379335L52.4655 0.00379043Z" fill="#82EF07"/>
</svg>
