<svg width="300" height="264" viewBox="0 0 300 264" fill="none" xmlns="http://www.w3.org/2000/svg">
<path d="M227.154 80.6789C221.671 77.5457 214.621 77.5457 208.355 80.6789L164.491 106.527L134.726 122.977L91.6449 148.825C86.1619 151.958 79.1123 151.958 72.846 148.825L39.1645 128.46C33.6815 125.326 29.765 119.06 29.765 112.01V72.846C29.765 66.5796 32.8982 60.3133 39.1645 56.3969L72.846 36.8146C78.329 33.6815 85.3786 33.6815 91.6449 36.8146L125.326 57.1802C130.809 60.3133 134.726 66.5796 134.726 73.6293V99.4778L164.491 82.2454V55.6136C164.491 49.3473 161.358 43.0809 155.091 39.1645L92.4282 2.34987C86.9452 -0.78329 79.8956 -0.78329 73.6292 2.34987L9.39948 39.9478C3.13316 43.0809 0 49.3473 0 55.6136V129.243C0 135.509 3.13316 141.775 9.39948 145.692L72.846 182.507C78.329 185.64 85.3786 185.64 91.6449 182.507L134.726 157.441L164.491 140.209L207.572 115.144C213.055 112.01 220.104 112.01 226.371 115.144L260.052 134.726C265.535 137.859 269.452 144.125 269.452 151.175V190.339C269.452 196.606 266.319 202.872 260.052 206.789L227.154 226.371C221.671 229.504 214.621 229.504 208.355 226.371L174.674 206.789C169.191 203.655 165.274 197.389 165.274 190.339V165.274L135.509 182.507V208.355C135.509 214.621 138.642 220.888 144.909 224.804L208.355 261.619C213.838 264.752 220.888 264.752 227.154 261.619L290.601 224.804C296.084 221.671 300 215.405 300 208.355V133.943C300 127.676 296.867 121.41 290.601 117.493L227.154 80.6789Z" fill="#F8FFF2"/>
</svg>
